# xmcd
# 
# Track frame offsets:
#     150
#     16691
#     33253
#     49884
#     95048
#     116413
#     136990
#     155645
#     175777
#     193053
#     213658
#     240721
#     269320
# 
# Disc length: 3759
# 
# Revision: 0
# Processed by: cddbd v1.5.2PL0 Copyright (c) Steve Scherf et al.
# Submitted via: fre:ac v1.0.17
# 
DISCID=b30ead0d
DTITLE=The Rolling Stones - Live Licks (VJCP-68701)
DYEAR=2004
DGENRE=Rock
TTITLE0=Neighbours
TTITLE1=Monkey Man
TTITLE2=Rocks Off
TTITLE3=Can't You Hear Me Knocking
TTITLE4=That's How Strong My Love Is
TTITLE5=The Nearness Of You
TTITLE6=Beast Of Burden
TTITLE7=When The Whip Comes Down
TTITLE8=Rock Me, Baby
TTITLE9=You Don't Have To Mean It
TTITLE10=Worried About You
TTITLE11=Everybody Needs Somebody To Love
TTITLE12=If You Can't Rock Me [Japan Only Bonus Track]
EXTD=YEAR: 2004
EXTT0=
EXTT1=
EXTT2=
EXTT3=
EXTT4=
EXTT5=
EXTT6=
EXTT7=
EXTT8=
EXTT9=
EXTT10=
EXTT11=
EXTT12=
PLAYORDER=
